<svg xmlns="http://www.w3.org/2000/svg" viewBox="0 0 250.79 127.94"><defs><style>.cls-1{fill:#fff;}</style></defs><g id="Layer_2" data-name="Layer 2"><g id="Layer_1-2" data-name="Layer 1"><path class="cls-1" d="M99.44,95.52c-7.88,0-14-1.06-18.29-3.14-5.8-2.83-9.94-6.49-12.31-10.88s-3.6-10.5-3.6-18.06V17.77c0-7.4-.56-9.48-1-10.4A7.76,7.76,0,0,0,60.75,3.8c-1.5-.8-4-1.19-7.62-1.21V1.93H99.4v.66H97.93c-3.82,0-6.41.41-7.92,1.25a7.47,7.47,0,0,0-3.3,3.58c-.4.93-.93,3-.93,10.35V63.44c0,8.57.65,14.12,2,17a16.76,16.76,0,0,0,6.58,7.14,21.4,21.4,0,0,0,11.43,2.83,24.47,24.47,0,0,0,13.41-3.56,21.94,21.94,0,0,0,8.33-9.8c1.49-3.38,2.36-8.58,2.63-15.89H134c-.28,6.81-.94,12-2,15.52-1.38,4.63-4.82,9-10.21,12.92S108.87,95.52,99.44,95.52Z"/><path class="cls-1" d="M154.42,93.32v-.66h.91c3.86,0,6.53-.55,8.17-1.68A4.6,4.6,0,0,0,165.42,87a9.6,9.6,0,0,0-.44-2.8c-.09-.36-.45-1.36-2.11-5.27l-5.19-12.2h-.06l-7-15.95-9.8-22.66-.06.13L139,24.11,149.75,0h.09l33.39,75.93c3.29,7.43,6,12,8.13,14a11.26,11.26,0,0,0,6.3,2.63v.76Z"/><path class="cls-1" d="M1.13,126.78A4.7,4.7,0,0,1,0,123.39v-6H1.1v5.94a3.9,3.9,0,0,0,.83,2.72,3,3,0,0,0,2.37.9,3.07,3.07,0,0,0,2.39-.9,3.9,3.9,0,0,0,.82-2.72V117.4H8.59v6a4.7,4.7,0,0,1-1.13,3.39,4.22,4.22,0,0,1-3.16,1.16A4.26,4.26,0,0,1,1.13,126.78Z"/><path class="cls-1" d="M15.15,127.69a.81.81,0,1,1,1.12-1.16.82.82,0,0,1,0,1.16.77.77,0,0,1-1.12,0Z"/><path class="cls-1" d="M29.46,125.06H23.63l-1.25,2.79H21.23L26,117.4H27.1l4.78,10.45H30.71Zm-.41-.89-2.5-5.62L24,124.17Z"/><path class="cls-1" d="M36.84,127.69a.85.85,0,0,1,0-1.16.79.79,0,0,1,.56-.23.81.81,0,0,1,.57.23.82.82,0,0,1-.57,1.4A.76.76,0,0,1,36.84,127.69Z"/><path class="cls-1" d="M55.06,125.06H49.24L48,127.85H46.84l4.77-10.45H52.7l4.78,10.45H56.32Zm-.4-.89-2.51-5.62-2.51,5.62Z"/><path class="cls-1" d="M64.87,127.26a5,5,0,0,1-2-1.91,5.58,5.58,0,0,1,0-5.45,5,5,0,0,1,2-1.9,6.09,6.09,0,0,1,5-.3,4.54,4.54,0,0,1,1.67,1.13l-.7.71a4.16,4.16,0,0,0-3.09-1.24,4.58,4.58,0,0,0-2.25.56,4.11,4.11,0,0,0-1.59,1.56,4.22,4.22,0,0,0-.58,2.21,4.27,4.27,0,0,0,.58,2.21,4.16,4.16,0,0,0,1.59,1.55,4.48,4.48,0,0,0,2.25.57,4.11,4.11,0,0,0,3.09-1.26l.7.71a4.72,4.72,0,0,1-1.68,1.14,6.11,6.11,0,0,1-4.95-.29Z"/><path class="cls-1" d="M79.51,127.26a5,5,0,0,1-2-1.91,5.58,5.58,0,0,1,0-5.45,5,5,0,0,1,2-1.9,5.73,5.73,0,0,1,2.81-.69,5.83,5.83,0,0,1,2.15.39,4.62,4.62,0,0,1,1.67,1.13l-.7.71a4.16,4.16,0,0,0-3.09-1.24,4.64,4.64,0,0,0-2.26.56,4.25,4.25,0,0,0-1.59,1.56,4.31,4.31,0,0,0-.57,2.21,4.36,4.36,0,0,0,.57,2.21,4.3,4.3,0,0,0,1.59,1.55,4.54,4.54,0,0,0,2.26.57,4.11,4.11,0,0,0,3.09-1.26l.7.71a4.72,4.72,0,0,1-1.68,1.14,6.14,6.14,0,0,1-5-.29Z"/><path class="cls-1" d="M94.17,127.25a5.09,5.09,0,0,1-2-1.91,5.55,5.55,0,0,1,0-5.43,5.07,5.07,0,0,1,2-1.9,6,6,0,0,1,5.62,0,5.11,5.11,0,0,1,2,1.9,5.52,5.52,0,0,1,0,5.45,5.14,5.14,0,0,1-2,1.91,6.11,6.11,0,0,1-5.62,0Zm5.06-.85a4.06,4.06,0,0,0,1.57-1.56,4.66,4.66,0,0,0,0-4.43,4,4,0,0,0-1.57-1.55,4.78,4.78,0,0,0-4.49,0,4.06,4.06,0,0,0-1.58,1.55,4.52,4.52,0,0,0,0,4.43,4.08,4.08,0,0,0,1.58,1.56,4.78,4.78,0,0,0,4.49,0Z"/><path class="cls-1" d="M109.9,126.78a4.7,4.7,0,0,1-1.13-3.39v-6h1.1v5.94a3.9,3.9,0,0,0,.83,2.72,3,3,0,0,0,2.37.9,3.08,3.08,0,0,0,2.39-.9,3.9,3.9,0,0,0,.82-2.72V117.4h1.07v6a4.7,4.7,0,0,1-1.12,3.39,4.9,4.9,0,0,1-6.33,0Z"/><path class="cls-1" d="M133.33,117.4v10.45h-.91l-6.72-8.48v8.48h-1.1V117.4h.91l6.73,8.48V117.4Z"/><path class="cls-1" d="M142.68,118.36H139v-1h8.46v1h-3.68v9.49h-1.1Z"/><path class="cls-1" d="M159.68,125.06h-5.82l-1.25,2.79h-1.15l4.77-10.45h1.09l4.78,10.45h-1.16Zm-.4-.89-2.51-5.62-2.51,5.62Z"/><path class="cls-1" d="M176.48,117.4v10.45h-.91l-6.72-8.48v8.48h-1.1V117.4h.91l6.73,8.48V117.4Z"/><path class="cls-1" d="M185.54,127.26a5,5,0,0,1-2-1.91,5.58,5.58,0,0,1,0-5.45,5,5,0,0,1,2-1.9,6.09,6.09,0,0,1,5-.3,4.54,4.54,0,0,1,1.67,1.13l-.7.71a4.16,4.16,0,0,0-3.09-1.24,4.58,4.58,0,0,0-2.25.56,4.11,4.11,0,0,0-1.59,1.56,4.22,4.22,0,0,0-.58,2.21,4.27,4.27,0,0,0,.58,2.21,4.16,4.16,0,0,0,1.59,1.55,4.48,4.48,0,0,0,2.25.57,4.11,4.11,0,0,0,3.09-1.26l.7.71a4.72,4.72,0,0,1-1.68,1.14,6.11,6.11,0,0,1-5-.29Z"/><path class="cls-1" d="M202,124.24v3.61h-1.09v-3.61l-4.18-6.84h1.18l3.58,5.87,3.58-5.87h1.11Z"/><path class="cls-1" d="M215.75,117.4h1.1v9.5h5.86v.95h-7Z"/><path class="cls-1" d="M230.48,118.36h-3.67v-1h8.45v1h-3.67v9.49h-1.11Z"/><path class="cls-1" d="M240.94,117.4h4.25a6.15,6.15,0,0,1,2.93.67,4.88,4.88,0,0,1,2,1.85,5.6,5.6,0,0,1,0,5.42,4.88,4.88,0,0,1-2,1.85,6.26,6.26,0,0,1-2.93.66h-4.25Zm4.19,9.5a5,5,0,0,0,2.41-.55,3.92,3.92,0,0,0,1.59-1.51,4.59,4.59,0,0,0,0-4.43,4.06,4.06,0,0,0-1.59-1.51,5.13,5.13,0,0,0-2.41-.54H242v8.54Z"/></g></g></svg>